<?xml version="1.0" encoding="UTF-8" standalone="no"?>
<svg
   xmlns:dc="http://purl.org/dc/elements/1.1/"
   xmlns:cc="http://creativecommons.org/ns#"
   xmlns:rdf="http://www.w3.org/1999/02/22-rdf-syntax-ns#"
   xmlns:svg="http://www.w3.org/2000/svg"
   xmlns="http://www.w3.org/2000/svg"
   xmlns:sodipodi="http://sodipodi.sourceforge.net/DTD/sodipodi-0.dtd"
   xmlns:inkscape="http://www.inkscape.org/namespaces/inkscape"
   viewBox="0 0 100 100"
   version="1.1"
   id="svg2438"
   sodipodi:docname="food.svg"
   width="100"
   height="100"
   inkscape:version="0.92.3 (2405546, 2018-03-11)">
  <metadata
     id="metadata2444">
    <rdf:RDF>
      <cc:Work
         rdf:about="">
        <dc:format>image/svg+xml</dc:format>
        <dc:type
           rdf:resource="http://purl.org/dc/dcmitype/StillImage" />
        <dc:title></dc:title>
      </cc:Work>
    </rdf:RDF>
  </metadata>
  <defs
     id="defs2442" />
  <sodipodi:namedview
     pagecolor="#ffffff"
     bordercolor="#666666"
     borderopacity="1"
     objecttolerance="10"
     gridtolerance="10"
     guidetolerance="10"
     inkscape:pageopacity="0"
     inkscape:pageshadow="2"
     inkscape:window-width="1366"
     inkscape:window-height="713"
     id="namedview2440"
     showgrid="false"
     inkscape:zoom="1.84375"
     inkscape:cx="-11.932203"
     inkscape:cy="129.08475"
     inkscape:window-x="0"
     inkscape:window-y="27"
     inkscape:window-maximized="1"
     inkscape:current-layer="svg2438" />
  <g
     transform="matrix(0.92327313,0,0,0.92404814,3.9917167,-0.95161248)"
     id="g2436"
     style="stroke-width:1.08264863">
    <path
       d="m 35.281,81.281 -10.781,0.1875 -10.594,0.96875 -9.375,1.4062 -8.0312,0.71875 0.25,0.875 8.5,0.96875 9.3438,0.09375 9.0312,0.4375 8.2188,1.5 2.4688,1 0.96875,-8.1562 z m 62.219,1.5938 -4.5938,0.8125 -6,1.5938 2.4688,5.7188 -4.6875,1.5312 6.625,0.25 7.875,-1.25 1.7812,-0.4375 -6.8125,-0.96875 -0.0937,-0.15625 3.625,-1.25 5.125,-1.8438 0.625,-0.90625 -3.9063,-0.34375 -5.0312,0.78125 -1.1562,-0.0625 3.9062,-2.6562 0.25,-0.8125 z m -22.438,11.5 -12.188,0.25 4.8438,5.9375 11.688,8.2188 0.0625,-0.71875 -6.0938,-8.3125 2.6562,1.5938 6.625,4.6875 2.6562,1.25 -0.625,-1.5 -3.6875,-3.8125 -3.9062,-2.8125 0.8125,-0.4375 6.1875,1.3125 c -0.85086,-3.3805 -5.9639,-3.8102 -9.0312,-5.6562 z"
       id="path2416"
       inkscape:connector-curvature="0"
       style="fill:#213040;stroke-width:1.08264863" />
    <path
       d="m 61.469,1.0312 c -6.274,0.29222 -10.331,3.2983 -13.037,8.6376 -9.167,2.0342 -14.562,9.228 -13.62,19.331 1.5992,6.1162 8.3925,8.5821 14,8.7812 -7.0764,13.646 -10.358,28.194 -13.069,43.182 l -1.6812,8.5679 -0.21875,1.375 c 9.4359,3.6178 18.249,4.2753 28.281,4.2812 l 13.5,-1.1562 c 3.2195,-0.36253 5.7114,-0.31811 8.5938,-1 l 4.6825,-2.1727 -1.745,-5.9523 c -4.0829,-10.363 -8.3453,-20.198 -11.594,-31.031 1.9139,-0.33072 3.8051,-0.8317 5.875,-0.78125 2.3125,1.3125 3.5938,3.6562 6.9375,3.9375 l 0.0313,0.03125 0.15625,-0.21875 c -0.60047,-2.8092 -3.4167,-3.6042 -5.125,-5.4062 2.4167,-0.20833 5.0922,0.61899 7.25,-0.625 l 0.0937,-0.25 c -1.3066,-2.2921 -4.5625,-1.5208 -6.8438,-2.2812 1.1875,-1.2708 3.6819,-1.8288 3.5625,-3.8125 l -0.15625,-0.1875 -0.03125,0.03125 c -3.0538,-0.19279 -4.7083,2.8125 -7.0625,4.2188 l -5.625,0.0625 c -0.62972,-4.8004 -0.74823,-9.9032 -0.125,-15.406 2.132,0.15345 4.667,0.45239 6.7812,0.75 l 0.21875,9.0938 c 1.5269,0.43545 3.6185,-0.09452 4.9688,-0.71875 l 0.1875,-0.5 0.34375,0.25 c 1.3194,0.42968 1.8957,0.46926 3.1562,-0.21875 L 89.53,34.4379 c 2.1035,0.33731 4.7689,0.49966 6.2812,0.46875 2.7494,-0.0562 4.9859,-0.77323 7.75,-2.3125 0.88095,-0.48235 0.13482,-1.1286 -0.0625,-1.7188 -2.8064,-1.4535 -4.3801,-3.0104 -6.75,-5.0312 -0.38045,-0.51 -0.97668,0.09948 -1.25,0.21875 -7.8793,-6.6025 -7.9289,-6.2066 -12.094,-8.6562 0.37641,-0.47195 0.58665,-1.2886 0.53125,-2.2188 -0.07595,-1.2753 -0.63801,-2.2828 -1.3125,-2.4375 -0.56684,-0.84455 -1.486,-1.4695 -2.9375,-1.6562 -1.6229,0.09893 -2.742,1.1021 -3.4375,2.4062 -0.60829,-0.5747 -1.1361,-0.40786 -1.9062,-0.5 -1.6926,-6.2951 -6.2858,-11.807 -12.875,-11.969 z"
       id="path2418"
       inkscape:connector-curvature="0"
       style="fill:#636e79;stroke-width:1.08264863" />
    <path
       d="M 81.65625,31.78125 81.75,42.6875 83.5,43 l 2.71875,-0.46875 0.5625,-1.0625 1.125,0.75 1.40625,-0.09375 0.75,-0.4375 -0.25305,-6.78016 0.12666,-0.84887 -0.96736,-0.46471 -7.3125,-1.8125 z"
       id="path2420"
       inkscape:connector-curvature="0"
       style="fill:#ffffff;stroke-width:1.08264863" />
    <path
       d="m 74.3125,13.0625 -2.1875,1.125 -1.4375,3 0.375,4.25 1.5625,1.625 1.625,0.375 1.5,-0.4375 1.625,-1.4375 0.125,-0.875 1.875,0.5625 1.75,-0.0625 1.5625,-2.0625 c 0,0 0.375,-1.625 0.375,-1.875 0,-0.25 -0.9375,-4.5 -0.9375,-4.5 L 79.75,11.3125 77.9375,12.25 76.9375,14 75.75,13.5 Z"
       id="path2422"
       inkscape:connector-curvature="0"
       style="fill:#ffffff;stroke-width:1.08264863" />
    <path
       d="m 70.62198,47.9915 c -0.4375,-0.0625 -4.45765,2.16475 -4.45765,2.16475 l -2.25,2.9375 -1.5625,4.9375 h 1.625 l 2.6875,-0.1875 h 2.1875 l 1.5625,0.9375 0.0625,0.3125 -1.125,0.5625 -3.625,0.125 -0.25,0.25 0.75,1.1875 1.875,1.875 c 0.25,0.25 1.1875,2.0625 1.1875,2.0625 l -0.0625,0.9375 c 0,0 -1.375,-0.125 -1.5,-0.375 -0.125,-0.25 -4.625,-3.9375 -4.625,-3.9375 v 0.9375 l 0.8125,3 -0.52589,3.63258 -2.1067,-5.98614 -0.55492,8.41605 0.75,0.75 2.44154,0.47943 c 0.8819,-0.74685 1.76381,-0.89038 2.64571,0.51952 l 12.10025,2.37605 4.875,0.3125 -0.125,-5.625 -1.6875,-1.25 c 0,0 -0.5625,-1.25 0.1875,-1.75 0.75,-0.5 2.4375,-0.875 2.4375,-0.875 l 2.5,-7.0625 -4.99556,-2.88572 c -1.78956,0.9609 -4.48843,-0.48731 -4.34173,-3.29682 l -6.89257,-5.48221 z"
       id="path2424"
       inkscape:connector-curvature="0"
       style="fill:#ffde00;stroke-width:1.08264863" />
    <path
       transform="translate(-12.586,-9.9688)"
       d="m 74.062,11 c -6.274,0.29222 -10.419,2.8482 -13.125,8.1875 -9.167,2.0342 -14.473,9.6781 -13.531,19.781 1.5992,6.1162 8.3925,8.5821 14,8.7812 -7.0764,13.646 -10.977,28.106 -13.688,43.094 C 34.536,90.66744 21.585,93.0995 8.53,94.4999 H 8.49875 c -0.23731,0.51557 -0.42113,1.4476 0.09375,1.625 12.859,1.5974 25.247,-0.76824 38.062,3.375 l -0.21875,1.375 c 9.4359,3.6178 18.249,4.2753 28.281,4.2812 5.0858,7.0317 11.12,10.083 16.969,14.062 1.0819,-0.3229 1.1027,-0.64585 1.2188,-0.96875 -1.8021,-2.7292 -2.6685,-4.8199 -6.2188,-7.9375 3.8333,2.375 7.1076,6.1477 11.5,7.125 l 0.15625,-0.1875 c -1.8294,-3.542 -5.0108,-5.936 -8.125,-8.2812 l 6.75,1.1562 0.09375,-0.125 c -0.69137,-3.2308 -5.8958,-4 -8.8438,-6 3.2195,-0.36253 5.7114,-0.31811 8.5938,-1 5.8648,1.0848 11.238,-0.77748 16.781,-1.625 0.83373,-0.28936 0.41188,-0.41321 0.375,-0.59375 l -7.0625,-0.65625 c 3.0836,-1.1793 6.4013,-1.7647 9.25,-3.5312 0.46436,-0.44099 0.35246,-0.83298 -0.125,-1.1562 -3.2087,-0.48637 -6.5553,0.33058 -9.875,0.84375 l 4.2188,-2.7188 -0.15625,-0.875 c -4.1464,-0.03491 -6.9808,1.4542 -10.469,2.1875 -1.2048,-3.058 -2.4508,-6.0571 -3.6562,-9.0625 l -0.8125,-0.03125 c 1.944,4.6543 4.0376,9.5738 6.0625,15.031 -17.859,6.0546 -36.278,3.6911 -54.25,-0.25 2.2419,-18.627 7.4492,-35.603 15.156,-52.688 1.4028,-0.01336 2.3752,-0.23737 4.0312,-0.46875 l -0.0625,-0.25 c -1.5986,0.22341 -3.0809,-0.08192 -4.4375,-0.0625 -5.9292,0.1891 -10.066,-1.7975 -12.844,-7.4062 -7.4116,-16.768 24.6,-31.378 27.031,-7.4688 l 0.25,0.0625 c -0.36096,-4.3665 -1.6311,-8.072 -3.9375,-10.5 1.2482,-1.214 2.1383,-2.0086 3.7746,-2.208 1.1359,-2.5543 1.3372,-2.3116 2.7606,-3.33 -0.56824,0.90801 -1.455,1.7356 -0.78282,2.8917 0.32554,-0.01289 -0.0131,0.03467 0.31569,0.05023 0.35418,-0.55219 0.63467,-1.1781 1.2413,-1.4778 -0.79818,0.76723 -0.57466,1.2135 -0.61681,1.8547 0.27856,0.02301 -0.06916,-0.04748 0.20881,-0.0067 -0.08491,-0.69783 1.1004,-1.1649 2.2486,-1.9508 -0.87037,0.75684 -1.5294,1.5137 -1.3374,2.2705 1.6303,0.27661 3.222,0.82407 4.5938,1.5 l 0.1875,-0.25 c -1.3011,-0.72695 -2.3412,-1.0808 -3.9062,-1.4688 -0.9962,-0.27977 1.0447,-2.1157 1.5312,-2.8438 -1.4976,0.57102 -1.9655,0.96563 -2.625,1.375 l 0.53125,-1.375 c -0.69885,0.38873 -1.5275,0.73547 -2.0938,1.5312 -0.51419,-1.2665 1.6566,-2.41 2.4375,-3.4375 -2.0724,1.0077 -4.9467,2.2465 -5.0938,4.0625 -1.8442,0.34628 -2.3004,1.1797 -3.7812,2.4375 -2.3918,-2.2592 -5.7962,-3.2566 -10.281,-2.3125 2.2043,-5.8138 7.4386,-6.8436 12.531,-6.9062 6.7816,-0.05206 10.108,4.9154 12.25,10.781 -0.84695,0.154 -1.5318,0.74531 -2.0938,1.5625 -1.7834,2.2583 -1.9959,5.0482 -0.78125,7.4688 1.95,2.5302 5.5065,1.5738 6.8125,-0.875 1.7369,1.2433 3.1458,0.59196 4.5,-0.84375 0.27863,-0.40521 0.51155,-0.8909 0.6875,-1.4062 4.6202,2.1926 8.6644,5.274 12.812,8.2188 l -0.71875,7.125 c -0.6512,0.28784 -1.4672,-0.12731 -2.9375,-0.125 -3.4289,-1.4511 -8.427,-2.1708 -12.75,-2.875 l 4.875,-2.9375 c 0.18287,-0.93692 -0.15684,-0.68937 -0.625,-0.8125 l -4.9062,3.625 c -0.94398,-0.15687 -1.9148,-0.30162 -2.75,-0.46875 l 0.125,0.125 c 0.79465,0.15901 1.6006,0.34749 2.4062,0.53125 l -1.6875,1.25 0.3125,0.0625 1.9375,-1.1875 c 0.75868,0.17808 1.5231,0.36453 2.2812,0.5625 l 0.03125,1.1875 c -3.7481,-0.4007 -7.2382,-0.43812 -9.9688,-0.3125 v 0.25 c 0.97425,-0.03184 1.7078,0.10719 2.6562,0.15625 -0.93355,6.7472 -0.62412,12.229 0.5,18 l 0.75,0.59375 c -0.20315,-1.0986 -0.44147,-1.9034 -0.59375,-3.0312 1.5949,0.53938 3.9219,0.30202 5.8125,0.25 1.916,-1.1775 3.8072,-4.0018 6.5312,-4.4375 0.89997,0.61095 -2.3438,2.5 -3.375,3.5938 l -0.0625,0.46875 c 2.1458,0.71875 4.774,-0.06313 6.5625,1.9062 -2.3229,0.9953 -4.7708,0.20833 -7.0938,0.40625 v 0.46875 c 1.5625,1.6562 4.4626,2.9229 4.625,4.8125 -2.9612,-0.44727 -3.9271,-2.5 -6,-3.6875 -2.1952,-0.20087 -3.6514,0.0819 -5.1562,0.34375 l 0.84375,0.5 0.03125,0.0625 c 1.314,-0.25075 2.6457,-0.47203 4.0625,-0.4375 2.3125,1.3125 3.5938,3.6562 6.9375,3.9375 l 0.0312,0.03125 0.15625,-0.21875 c -0.60047,-2.8092 -3.4167,-3.6042 -5.125,-5.4062 2.4167,-0.20833 5.0922,0.61899 7.25,-0.625 l 0.0937,-0.25 c -1.3066,-2.2921 -4.5625,-1.5208 -6.8438,-2.2812 1.1875,-1.2708 3.6819,-1.8288 3.5625,-3.8125 l -0.1562,-0.1875 -0.03125,0.03125 c -3.0538,-0.19279 -4.7083,2.8125 -7.0625,4.2188 l -5.625,0.0625 c -0.62972,-4.8004 -0.74823,-9.9032 -0.125,-15.406 2.132,0.15345 4.667,0.45239 6.7812,0.75 l 0.21875,9.0938 c 1.5269,0.43545 3.681,0.15548 5.0312,-0.46875 l 0.25,-0.9375 0.28125,0.6875 c 1.3194,0.42968 1.8332,0.21926 3.0938,-0.46875 0.28344,-2.4185 0.006,-4.7567 -0.28125,-7.0938 2.1035,0.33731 4.4252,0.18716 5.9375,0.15625 2.7494,-0.0562 4.9859,-0.77323 7.75,-2.3125 0.88095,-0.48235 0.13482,-1.1286 -0.0625,-1.7188 -2.8064,-1.4535 -4.3801,-3.0104 -6.75,-5.0312 -0.38045,-0.51001 -0.97668,0.09948 -1.25,0.21875 -1.1056,-0.92646 -1.7634,-1.4469 -2.5938,-2.125 l 3.8125,-4.25 -0.3125,-0.125 -4.2812,3.75 c -0.30237,-0.24418 -0.76196,-0.63023 -1.0312,-0.84375 l 5.125,-7.8125 -0.1875,-0.0625 -5.6875,7.2812 c -0.41338,-0.3206 -0.81177,-0.65241 -1.1562,-0.90625 l 2.125,-4.125 -0.1875,-0.0625 -2.625,3.7188 c -1.7532,-1.2334 -2.8279,-1.761 -5.0938,-3.0938 0.37641,-0.47195 0.58665,-1.2886 0.53125,-2.2188 -0.07595,-1.2753 -0.63801,-2.2828 -1.3125,-2.4375 -0.56684,-0.84455 -1.486,-1.4695 -2.9375,-1.6562 -1.6229,0.09893 -2.7419,1.1021 -3.4375,2.4062 -0.60829,-0.5747 -1.1361,-0.40786 -1.9062,-0.5 -1.6926,-6.2951 -6.2858,-11.807 -12.875,-11.969 z m 18.156,10.625 c 1.0683,0.16265 1.7382,0.66284 2.1875,1.3438 -0.43904,0.44223 -0.71658,1.3308 -0.65625,2.3438 0.08301,1.3938 0.77648,2.4828 1.5312,2.4688 -0.13524,0.64449 -0.41038,1.1675 -0.8125,1.9375 -1.2288,1.6524 -2.3808,1.5986 -4,0.65625 0.03578,-0.1089 0.0615,-0.20761 0.09375,-0.3125 0.50875,-0.39211 0.81561,-1.336 0.75,-2.4375 -0.06312,-1.0599 -0.44685,-1.9538 -0.96875,-2.3125 -0.21359,-0.41421 -0.44952,-0.84573 -0.78125,-1.3125 0.56637,-1.3855 1.231,-2.0414 2.6562,-2.375 z m -28.781,1.1875 c -8.4962,-0.02895 -15.091,7.7584 -13.125,15.469 l 0.28125,-0.3125 c -1.37,-11.445 14.226,-20.351 21.094,-8.0938 l 0.1875,0.09375 c -1.1559,-4.1624 -4.7742,-7.1874 -8.4375,-7.1562 z m 23.594,0.59375 c 0.57153,-0.03386 1.1882,0.15087 1.9062,0.5625 0.40969,0.54115 0.66464,0.90906 0.84375,1.1875 -0.76748,0.04571 -1.3342,1.2118 -1.25,2.625 0.07835,1.3155 0.70408,2.3666 1.4062,2.4688 -0.09129,0.26566 -0.1939,0.52486 -0.25,0.78125 -1.3198,2.0595 -3.0552,2.819 -4.9375,0.875 -1.629,-2.4978 -1.057,-3.9812 -0.34375,-6.6875 0.86805,-1.1209 1.6724,-1.7561 2.625,-1.8125 z m 8.2812,11.438 -15.25,1.375 v 0.25 l 15.312,-0.625 c 0.93317,-0.60591 0.03954,-0.68987 -0.0625,-1 z m -0.875,1.9062 -16.625,5.25 0.1875,0.25 16.75,-4.5625 c 0.41894,-0.70483 -0.13155,-0.68259 -0.3125,-0.9375 z m 0.09375,5.4062 c 2.6743,0.7199 5.0873,0.86298 7.5,1.8125 0.24464,2.7348 0.6657,5.7562 0.28125,7.4688 -0.79711,0.56799 -0.70259,0.83855 -2.4375,0.46875 0.34571,-2.0557 -0.68649,-5.8193 -1.0938,-7.875 l -0.09375,0.1875 c 0.26147,2.0746 0.29575,5.8385 0,7.9688 -1.1941,0.59315 -2.8996,0.56451 -4.0938,0.28125 0.06934,-2.8749 -0.24075,-7.6155 -0.25,-9.2188 l 0.1875,-1.0938 z m -24.812,21.281 -0.15625,0.1875 c 1.7021,1.5062 2.8043,3.6124 5.125,4.5 2.6979,0.26042 6.1815,-1.2075 8.0938,0.78125 -0.98458,0.81679 -3.2917,0.5 -4.9375,0.75 l -0.09375,0.21875 c 0.36588,2.147 4.4009,4.1118 3.75,5.875 -2.1223,-0.38704 -3.8646,-3.0938 -5.7812,-4.4062 l -0.3125,0.40625 c 0.16667,2.2812 1.19,5.4423 0.46875,7.0312 l -2.2812,-7.2188 c -1.532,-2.4818 -5.6479,-3.657 -8.5625,-4.75 l -0.0625,0.25 c 2.9885,0.78544 5.608,2.7398 8.1562,4.9375 0.71502,3.1211 1.8941,5.0046 2.8438,7.5 l 0.53125,-0.0625 c 0.54681,-2.4792 -0.54167,-4.9583 -0.8125,-7.4375 2.0104,1.3854 3.0055,4.0143 6.0312,4.1562 l 0.1875,-0.15625 c 0.21897,-2.8972 -2.5416,-4.0729 -3.8125,-6.0938 1.7083,-0.23958 3.5714,0.29469 5.125,-0.71875 l 0.03125,-0.25 c -1.4932,-2.4939 -5.4792,-0.83333 -8.2188,-1.25 -1.8561,-1.7578 -3.5417,-2.8334 -5.3125,-4.25 z m -26.062,28.562 c 1.3538,-0.01679 2.7096,-0.02552 4.0625,0 -0.37601,2.1247 -0.55864,4.4092 -1.1875,7 -3.2757,-1.058 -6.5622,-1.7222 -9.8438,-2.1562 1.0276,-2.8114 4.2244,-3.6171 6.9688,-4.8438 z m -1.9375,0.03125 c -2.4427,1.3319 -5.0795,2.5633 -5.875,4.7188 -3.7817,-0.45563 -7.5664,-0.63322 -11.344,-0.75 1.3336,-1.8808 3.3771,-2.7093 5.5625,-3.3125 3.8817,-0.31616 7.7746,-0.55895 11.656,-0.65625 z m -14.562,0.90625 c -1.5326,0.62643 -2.8435,1.5112 -3.6562,2.9375 l 0.0625,0.09375 c -2.9853,-0.08735 -5.9622,-0.1713 -8.9375,-0.34375 0.37969,-0.90608 1.7249,-1.3229 3.0625,-1.75 l -0.0625,-0.03125 c 3.184,-0.32041 6.3472,-0.62058 9.5312,-0.90625 z m 82.5,0.53125 -3.9688,2.8438 c -0.11045,0.28156 0.0398,0.42567 0.15625,0.59375 3.2394,-0.11487 5.9032,-1.6579 9.625,-0.6875 -2.8476,1.9327 -5.9896,2.0625 -9,3.3438 -0.58961,0.16175 -0.19269,0.4765 0,0.75 l 6.1875,0.90625 c -4.825,0.62492 -10.051,2.1084 -14.125,1.125 1.5636,-0.39029 2.1907,-0.85119 3.5938,-1.3438 -0.65075,-1.7339 -1.51,-3.8025 -2.1875,-5.5312 3.236,-0.6634 7.3812,-2.1067 9.7188,-2 z m -94.031,0.59375 c -1.0979,0.43558 -1.7779,0.90804 -1.9375,1.5 -1.1976,-0.07875 -2.3986,-0.15728 -3.5938,-0.28125 -0.32217,-0.03342 -0.02086,-0.61963 -0.34375,-0.65625 1.9561,-0.17769 3.9189,-0.36738 5.875,-0.5625 z m 71.562,10.562 c 3.0312,1.7083 7.5789,1.9002 9.0938,5.125 -2.1354,-0.6328 -4.2708,-1.3977 -6.4062,-1.125 l -0.5625,0.40625 c 2.7393,2.4673 6.9028,4.6833 8.125,7.6562 l -11.625,-7.1562 -0.1875,0.1875 c 3.0386,3.5083 4.5633,6.1756 6,8.5625 -5.0321,-3.9457 -10.958,-6.8759 -15.094,-13.062 3.5803,-0.0335 7.1836,-0.21846 10.656,-0.59375 z"
       id="path2426"
       inkscape:connector-curvature="0"
       style="stroke-width:1.08264863" />
    <path
       d="m 82.90625,13.375 c -0.41387,0.5789 0.05588,2.2172 0.56472,2.60708 0.53444,-0.94409 -0.35077,-2.19703 -0.56472,-2.60708 z m -5.125,2.3835 c -0.9442,0.84406 0.10008,2.52656 0.52053,2.60708 0.44605,-0.59054 -0.30657,-2.19703 -0.52053,-2.60708 z"
       id="path2428"
       inkscape:connector-curvature="0"
       style="fill:#ffffff;stroke-width:1.08264863" />
    <path
       d="m 96.541,26.49 c 0.18097,0.88949 0.16917,1.7469 -0.35355,2.5191 2.0123,1.2366 4.4157,1.789 6.8943,2.2097 -2.4075,-0.89451 -4.4793,-2.7961 -6.5407,-4.7288 z"
       id="path2430"
       inkscape:connector-curvature="0"
       style="fill:#ffffff;stroke-width:1.08264863" />
    <path
       transform="translate(-12.586,-9.9688)"
       d="m 82.95543,57.8223 -4.29918,2.33395 1.4375,1.28125 11.375,6.0625 7.25,2.28125 L 99,69.5625 c -1.60965,-1.00811 -3.01731,-1.79524 -4.52061,-2.80335 -2.51173,1.59479 -4.78773,-0.98376 -4.34366,-3.31093 L 87.78126,61 85.31613,58.64816 Z M 78.4375,63 l -0.15625,1.53125 0.6875,1.78125 0.9375,0.6875 1.1875,0.15625 c 0,0 1.10133,-0.52903 0.96875,-0.75 -0.13258,-0.22097 -0.39867,-1.19822 -0.53125,-1.375 -0.13258,-0.17678 -1.64331,-1.63572 -1.6875,-1.8125 z m 13.34375,7.3125 c -0.14726,0.004 -0.30302,0.02746 -0.46875,0.09375 l -0.84375,1.15625 -0.125,1.8125 0.78125,1.90625 1.25,0.4375 L 93.34375,75.0625 94,74.3125 c 0,0 0.40533,-0.65809 -0.125,-1.71875 -0.46404,-0.92808 -1.06296,-2.30904 -2.09375,-2.28125 z m -6.71875,0.34375 c -0.35105,0.0085 -0.90625,1 -0.90625,1 L 83.875,72.875 l 1.15625,1.46875 1,0.3125 1,-0.53125 L 87.0625,73.03125 86.625,72.125 85.21875,70.71875 c -0.03867,-0.04419 -0.1061,-0.06371 -0.15625,-0.0625 z m -7,4.40625 -0.625,0.46875 -0.5,1.875 0.28125,1.1875 0.96875,0.53125 h 0.78125 l 1.0625,-0.3125 c 0,0 0.32767,-0.98484 0.0625,-1.25 -0.26517,-0.26516 -0.94286,-1.66697 -1.03125,-1.84375 -0.08839,-0.17678 -1,-0.65625 -1,-0.65625 z m 6.96875,3.90625 C 84.94554,78.95114 84.88432,78.9779 84.8125,79 l -1.1875,1.0625 -0.15625,1.125 0.9375,1.65625 1.03125,0.3125 c 0,0 1.08081,0.22097 1.125,0 0.04419,-0.22097 0.375,-1.34375 0.375,-1.34375 0,0 0.07767,-1.0527 -0.1875,-1.40625 -0.23202,-0.30936 -1.11876,-1.31424 -1.71875,-1.4375 z m 7.375,2.75 L 91.75,81.8125 91.40625,83.375 91.9375,85 l 1.40625,0.03125 c 0,0 0.47947,-0.26386 0.65625,-0.75 0.17678,-0.48614 -0.0085,-1.31564 -0.40625,-1.625 -0.39775,-0.30936 -0.56878,-0.62814 -1.1875,-0.9375 z"
       id="path2432"
       inkscape:connector-curvature="0"
       style="fill:#ffb400;stroke-width:1.08264863" />
    <path
       transform="translate(-12.586,-9.9688)"
       d="m 83.075,57.522 c -1.6909,0.53526 -3.2816,1.2549 -4.7622,2.2906 -2.0216,2.9995 -2.8394,4.315 -3.625,7.9062 l 0.625,0.21875 c 0.18785,-2.2407 1.3001,-3.7707 3.1875,-7.3125 6.1338,4.0575 12.788,8.0231 20.188,9.4375 -0.46039,3.2643 -1.8381,4.1181 -2.5312,6.5 -2.7124,0.56722 -2.7838,2.4709 -0.75,4.2188 0.20948,1.6431 0.96858,3.7344 0.09375,4.8438 -5.4905,-0.07068 -10.955,-1.1434 -16.031,-2.375 -1.4446,-2.1961 -2.1957,-0.8176 -3.1875,-0.75 l -2.5938,-0.625 c 0.1553,-1.7903 0.05217,-6.6492 0.21875,-8.4375 l -0.4375,-0.3125 -0.65625,9.2812 c 1.1269,0.28738 2.2481,0.55387 3.375,0.8125 0.99784,-0.13719 2.09,-1.892 2.9375,0.65625 5.812,1.2151 11.626,2.0832 17.438,2.7812 l -0.15625,-6.375 c -3.2335,-1.4137 -2.7023,-2.4433 0.625,-3.1875 l 3,-7.75 c -2.0198,-0.67572 -3.8731,-1.5966 -5.5919,-2.7041 -2.2585,1.3084 -4.5183,-0.69806 -3.9198,-3.2202 -2.2788,-1.841 -3.355,-3.0445 -4.9265,-5.0419 -1.0338,-0.15799 -1.3956,-0.13838 -2.5183,-0.85565 z m 1.144,0.72812 c 1.8944,2.7613 3.1335,3.637 5.8478,5.5441 -0.58189,2.4488 2.0953,4.0518 4.1597,3.211 1.4107,0.88063 2.7914,1.6836 4.055,2.4324 -6.4228,-1.5754 -13.598,-5.4027 -19.125,-9.0625 1.4723,-1.1375 3.3049,-1.609 5.0625,-2.125 z m -5.4688,4.4062 c -0.86766,0.02124 -0.93773,1.0971 -0.625,2.5312 0.78687,1.9564 1.0255,2.1503 3.0625,2.0938 2.5578,-1.1809 0.72761,-2.399 -0.71875,-3.9375 -0.7559,-0.49984 -1.3244,-0.69715 -1.7188,-0.6875 z m 0.25,0.875 c 0.29402,0.01105 0.65892,0.09701 1.0312,0 1.2324,1.2568 1.9494,2.0512 1,3.3125 -1.252,0.10092 -1.7714,-0.55002 -2.2812,-1.5938 -0.4951,-1.5395 -0.24003,-1.7372 0.25,-1.7188 z m 12.219,6.4062 c -1.1722,0.26188 -1.416,2.3429 -1.0625,3.9062 0.69124,3.5133 4.645,2.2703 4.125,-1.25 -0.34423,-0.86624 -0.92179,-1.6846 -1.5625,-2.2188 -0.60634,-0.4003 -1.1092,-0.52479 -1.5,-0.4375 z m -6.2188,0.59375 c -2.04,0.99398 -1.4029,2.4431 -0.34375,4.0625 2.188,0.68776 2.9879,0.09792 2.5312,-1.9375 -0.39043,-1.1844 -1.2401,-1.597 -2.1875,-2.125 z m 7.25,0.09375 c 0.45885,0.38255 1.1534,1.7226 1.4375,2.4375 0.55386,2.4559 -2.0978,2.7502 -2.9375,1.0312 -0.81065,-2.4618 0.505,-3.2087 1.5,-3.4688 z m -7.4688,0.34375 c 0.69793,0.27037 1.8188,1.3969 2.1875,2 0.33575,1.1882 -0.68702,1.3371 -1.8125,1.3125 -0.82252,-0.96994 -0.68303,-2.3014 -0.375,-3.3125 z m -6.9375,4.0938 c -1.205,0.03442 -1.1686,1.642 -1.125,3.125 0.98223,1.361 2.2622,1.334 3.625,0.65625 0.6385,-1.5067 -0.25082,-2.6018 -1.4375,-3.5312 -0.42311,-0.18022 -0.78442,-0.25794 -1.0625,-0.25 z m 0.4375,0.3125 c 1.469,0.67323 1.7343,2.7986 1.5312,3.4375 -0.75904,0.40195 -2.0266,-0.25921 -2.625,-0.53125 -0.45006,-1.4141 0.88863,-2.71 1.0938,-2.9062 z m 6.5625,3.3125 c -0.5993,0.02496 -1.158,0.53572 -1.5312,1.7188 -0.0323,1.0713 0.51683,1.8705 1.0938,2.7188 0.46909,0.37306 1.2232,0.24637 1.8125,0.25 1.3873,-0.52442 1.2576,-1.3943 0.9375,-2.6875 -0.69575,-1.2545 -1.542,-2.0321 -2.3125,-2 z m 0.21875,0.53125 c 0.44988,-0.03137 0.95918,0.37918 1.5312,1.5625 0.34988,3.703 -2.4037,1.9749 -2.875,0.15625 0.30901,-0.89083 0.76533,-1.6784 1.3438,-1.7188 z m 7.1562,2.3125 c -1.581,0.07633 -1.1707,2.2115 -0.4375,3.5312 1.8036,0.55936 2.7152,-0.13711 2.2812,-2.0312 -0.2294,-0.54518 -0.59545,-1.0631 -1.0312,-1.4062 -0.31159,-0.08191 -0.58664,-0.10465 -0.8125,-0.09375 z m -0.09375,0.3125 c 0.25196,0.19839 1.5864,0.98617 1.75,1.375 0.67458,1.342 -1.4341,1.2757 -1.7188,1.625 -0.52299,-0.72231 -0.36155,-2.2238 -0.03125,-3 z"
       id="path2434"
       inkscape:connector-curvature="0"
       style="stroke-width:1.08264863" />
  </g>
</svg>
